<svg width="396" height="58" viewBox="0 0 396 58" fill="none" xmlns="http://www.w3.org/2000/svg">
<g filter="url(#filter0_d_75918_14091)">
<rect x="2" y="5" width="392" height="48" rx="10" fill="#E7E7E7"/>
<rect x="2" y="5" width="392" height="48" rx="10" stroke="#A8A8A8" stroke-dasharray="2 4"/>
<path d="M131.992 35.5H130.461L124.234 25.9062H124.172C124.188 26.1615 124.206 26.4531 124.227 26.7812C124.247 27.1042 124.263 27.4505 124.273 27.8203C124.289 28.1849 124.297 28.5573 124.297 28.9375V35.5H123.062V24.0781H124.586L130.789 33.6406H130.844C130.833 33.4583 130.82 33.2005 130.805 32.8672C130.789 32.5286 130.773 32.1667 130.758 31.7812C130.747 31.3906 130.742 31.0286 130.742 30.6953V24.0781H131.992V35.5ZM142.297 31.2031C142.297 31.9062 142.206 32.5339 142.023 33.0859C141.841 33.638 141.578 34.1042 141.234 34.4844C140.891 34.8646 140.474 35.1562 139.984 35.3594C139.5 35.5573 138.951 35.6562 138.336 35.6562C137.763 35.6562 137.237 35.5573 136.758 35.3594C136.284 35.1562 135.872 34.8646 135.523 34.4844C135.18 34.1042 134.911 33.638 134.719 33.0859C134.531 32.5339 134.438 31.9062 134.438 31.2031C134.438 30.2656 134.596 29.4688 134.914 28.8125C135.232 28.151 135.685 27.6484 136.273 27.3047C136.867 26.9557 137.573 26.7812 138.391 26.7812C139.172 26.7812 139.854 26.9557 140.438 27.3047C141.026 27.6536 141.482 28.1589 141.805 28.8203C142.133 29.4766 142.297 30.2708 142.297 31.2031ZM135.781 31.2031C135.781 31.8906 135.872 32.487 136.055 32.9922C136.237 33.4974 136.518 33.888 136.898 34.1641C137.279 34.4401 137.768 34.5781 138.367 34.5781C138.961 34.5781 139.448 34.4401 139.828 34.1641C140.214 33.888 140.497 33.4974 140.68 32.9922C140.862 32.487 140.953 31.8906 140.953 31.2031C140.953 30.5208 140.862 29.9323 140.68 29.4375C140.497 28.9375 140.216 28.5521 139.836 28.2812C139.456 28.0104 138.964 27.875 138.359 27.875C137.469 27.875 136.815 28.1693 136.398 28.7578C135.987 29.3464 135.781 30.1615 135.781 31.2031ZM151.461 34.5938C151.674 34.5938 151.893 34.5755 152.117 34.5391C152.341 34.5026 152.523 34.4583 152.664 34.4062V35.4141C152.513 35.4818 152.302 35.5391 152.031 35.5859C151.766 35.6328 151.505 35.6562 151.25 35.6562C150.797 35.6562 150.385 35.5781 150.016 35.4219C149.646 35.2604 149.349 34.9896 149.125 34.6094C148.906 34.2292 148.797 33.7031 148.797 33.0312V27.9531H147.578V27.3203L148.805 26.8125L149.32 24.9531H150.102V26.9375H152.609V27.9531H150.102V32.9922C150.102 33.5286 150.224 33.9297 150.469 34.1953C150.719 34.4609 151.049 34.5938 151.461 34.5938ZM157.602 26.7969C158.622 26.7969 159.38 27.026 159.875 27.4844C160.37 27.9427 160.617 28.6745 160.617 29.6797V35.5H159.672L159.422 34.2344H159.359C159.12 34.5469 158.87 34.8099 158.609 35.0234C158.349 35.2318 158.047 35.3906 157.703 35.5C157.365 35.6042 156.948 35.6562 156.453 35.6562C155.932 35.6562 155.469 35.5651 155.062 35.3828C154.661 35.2005 154.344 34.9245 154.109 34.5547C153.88 34.1849 153.766 33.7161 153.766 33.1484C153.766 32.2943 154.104 31.638 154.781 31.1797C155.458 30.7214 156.49 30.4714 157.875 30.4297L159.352 30.3672V29.8438C159.352 29.1042 159.193 28.5859 158.875 28.2891C158.557 27.9922 158.109 27.8438 157.531 27.8438C157.083 27.8438 156.656 27.9089 156.25 28.0391C155.844 28.1693 155.458 28.3229 155.094 28.5L154.695 27.5156C155.081 27.3177 155.523 27.1484 156.023 27.0078C156.523 26.8672 157.049 26.7969 157.602 26.7969ZM159.336 31.2812L158.031 31.3359C156.964 31.3776 156.211 31.5521 155.773 31.8594C155.336 32.1667 155.117 32.6016 155.117 33.1641C155.117 33.6536 155.266 34.0156 155.562 34.25C155.859 34.4844 156.253 34.6016 156.742 34.6016C157.503 34.6016 158.125 34.3906 158.609 33.9688C159.094 33.5469 159.336 32.9141 159.336 32.0703V31.2812ZM168.828 33.1562C168.828 33.7031 168.69 34.1641 168.414 34.5391C168.143 34.9089 167.753 35.1875 167.242 35.375C166.737 35.5625 166.133 35.6562 165.43 35.6562C164.831 35.6562 164.312 35.6094 163.875 35.5156C163.438 35.4219 163.055 35.2891 162.727 35.1172V33.9219C163.076 34.0938 163.492 34.25 163.977 34.3906C164.461 34.5312 164.956 34.6016 165.461 34.6016C166.201 34.6016 166.737 34.4818 167.07 34.2422C167.404 34.0026 167.57 33.6771 167.57 33.2656C167.57 33.0312 167.503 32.8255 167.367 32.6484C167.237 32.4661 167.016 32.2917 166.703 32.125C166.391 31.9531 165.958 31.7656 165.406 31.5625C164.859 31.3542 164.385 31.1484 163.984 30.9453C163.589 30.737 163.281 30.4844 163.062 30.1875C162.849 29.8906 162.742 29.5052 162.742 29.0312C162.742 28.3073 163.034 27.7526 163.617 27.3672C164.206 26.9766 164.977 26.7812 165.93 26.7812C166.445 26.7812 166.927 26.8333 167.375 26.9375C167.828 27.0365 168.25 27.1719 168.641 27.3438L168.203 28.3828C167.849 28.2318 167.471 28.1042 167.07 28C166.669 27.8958 166.26 27.8438 165.844 27.8438C165.245 27.8438 164.784 27.9427 164.461 28.1406C164.143 28.3385 163.984 28.6094 163.984 28.9531C163.984 29.2188 164.057 29.4375 164.203 29.6094C164.354 29.7812 164.594 29.9427 164.922 30.0938C165.25 30.2448 165.682 30.4219 166.219 30.625C166.755 30.8229 167.219 31.0286 167.609 31.2422C168 31.4505 168.299 31.7057 168.508 32.0078C168.721 32.3047 168.828 32.6875 168.828 33.1562ZM172.203 23.3438V29.6562C172.203 29.8646 172.195 30.1198 172.18 30.4219C172.164 30.7188 172.151 30.9818 172.141 31.2109H172.195C172.305 31.0755 172.464 30.875 172.672 30.6094C172.885 30.3438 173.065 30.1302 173.211 29.9688L176.055 26.9375H177.578L174.133 30.5938L177.828 35.5H176.266L173.242 31.4453L172.203 32.3984V35.5H170.914V23.3438H172.203ZM184.859 33.1562C184.859 33.7031 184.721 34.1641 184.445 34.5391C184.174 34.9089 183.784 35.1875 183.273 35.375C182.768 35.5625 182.164 35.6562 181.461 35.6562C180.862 35.6562 180.344 35.6094 179.906 35.5156C179.469 35.4219 179.086 35.2891 178.758 35.1172V33.9219C179.107 34.0938 179.523 34.25 180.008 34.3906C180.492 34.5312 180.987 34.6016 181.492 34.6016C182.232 34.6016 182.768 34.4818 183.102 34.2422C183.435 34.0026 183.602 33.6771 183.602 33.2656C183.602 33.0312 183.534 32.8255 183.398 32.6484C183.268 32.4661 183.047 32.2917 182.734 32.125C182.422 31.9531 181.99 31.7656 181.438 31.5625C180.891 31.3542 180.417 31.1484 180.016 30.9453C179.62 30.737 179.312 30.4844 179.094 30.1875C178.88 29.8906 178.773 29.5052 178.773 29.0312C178.773 28.3073 179.065 27.7526 179.648 27.3672C180.237 26.9766 181.008 26.7812 181.961 26.7812C182.477 26.7812 182.958 26.8333 183.406 26.9375C183.859 27.0365 184.281 27.1719 184.672 27.3438L184.234 28.3828C183.88 28.2318 183.503 28.1042 183.102 28C182.701 27.8958 182.292 27.8438 181.875 27.8438C181.276 27.8438 180.815 27.9427 180.492 28.1406C180.174 28.3385 180.016 28.6094 180.016 28.9531C180.016 29.2188 180.089 29.4375 180.234 29.6094C180.385 29.7812 180.625 29.9427 180.953 30.0938C181.281 30.2448 181.714 30.4219 182.25 30.625C182.786 30.8229 183.25 31.0286 183.641 31.2422C184.031 31.4505 184.331 31.7057 184.539 32.0078C184.753 32.3047 184.859 32.6875 184.859 33.1562ZM191.297 35.5V24.0781H192.625V35.5H191.297ZM199.625 26.7812C200.641 26.7812 201.409 27.0312 201.93 27.5312C202.451 28.026 202.711 28.8229 202.711 29.9219V35.5H201.43V30.0078C201.43 29.2943 201.266 28.7604 200.938 28.4062C200.615 28.0521 200.117 27.875 199.445 27.875C198.497 27.875 197.831 28.1432 197.445 28.6797C197.06 29.2161 196.867 29.9948 196.867 31.0156V35.5H195.57V26.9375H196.617L196.812 28.1719H196.883C197.065 27.8698 197.297 27.6172 197.578 27.4141C197.859 27.2057 198.174 27.0495 198.523 26.9453C198.872 26.8359 199.24 26.7812 199.625 26.7812ZM213.562 26.7812C214.63 26.7812 215.482 27.1484 216.117 27.8828C216.753 28.6172 217.07 29.7214 217.07 31.1953C217.07 32.1693 216.924 32.987 216.633 33.6484C216.341 34.3099 215.93 34.8099 215.398 35.1484C214.872 35.487 214.25 35.6562 213.531 35.6562C213.078 35.6562 212.68 35.5964 212.336 35.4766C211.992 35.3568 211.698 35.1953 211.453 34.9922C211.208 34.7891 211.005 34.5677 210.844 34.3281H210.75C210.766 34.5312 210.784 34.776 210.805 35.0625C210.831 35.349 210.844 35.599 210.844 35.8125V39.3281H209.539V26.9375H210.609L210.781 28.2031H210.844C211.01 27.9427 211.214 27.7057 211.453 27.4922C211.693 27.2734 211.984 27.1016 212.328 26.9766C212.677 26.8464 213.089 26.7812 213.562 26.7812ZM213.336 27.875C212.742 27.875 212.263 27.9896 211.898 28.2188C211.539 28.4479 211.276 28.7917 211.109 29.25C210.943 29.7031 210.854 30.2734 210.844 30.9609V31.2109C210.844 31.9349 210.922 32.5469 211.078 33.0469C211.24 33.5469 211.503 33.9271 211.867 34.1875C212.237 34.4479 212.732 34.5781 213.352 34.5781C213.883 34.5781 214.326 34.4349 214.68 34.1484C215.034 33.862 215.297 33.4635 215.469 32.9531C215.646 32.4375 215.734 31.8464 215.734 31.1797C215.734 30.1693 215.536 29.3672 215.141 28.7734C214.75 28.1745 214.148 27.875 213.336 27.875ZM223.227 26.7812C223.398 26.7812 223.578 26.7917 223.766 26.8125C223.953 26.8281 224.12 26.8516 224.266 26.8828L224.102 28.0859C223.961 28.0495 223.805 28.0208 223.633 28C223.461 27.9792 223.299 27.9688 223.148 27.9688C222.805 27.9688 222.479 28.0391 222.172 28.1797C221.87 28.3151 221.604 28.513 221.375 28.7734C221.146 29.0286 220.966 29.3385 220.836 29.7031C220.706 30.0625 220.641 30.4635 220.641 30.9062V35.5H219.336V26.9375H220.414L220.555 28.5156H220.609C220.786 28.1979 221 27.9089 221.25 27.6484C221.5 27.3828 221.789 27.1719 222.117 27.0156C222.451 26.8594 222.82 26.7812 223.227 26.7812ZM233.266 31.2031C233.266 31.9062 233.174 32.5339 232.992 33.0859C232.81 33.638 232.547 34.1042 232.203 34.4844C231.859 34.8646 231.443 35.1562 230.953 35.3594C230.469 35.5573 229.919 35.6562 229.305 35.6562C228.732 35.6562 228.206 35.5573 227.727 35.3594C227.253 35.1562 226.841 34.8646 226.492 34.4844C226.148 34.1042 225.88 33.638 225.688 33.0859C225.5 32.5339 225.406 31.9062 225.406 31.2031C225.406 30.2656 225.565 29.4688 225.883 28.8125C226.201 28.151 226.654 27.6484 227.242 27.3047C227.836 26.9557 228.542 26.7812 229.359 26.7812C230.141 26.7812 230.823 26.9557 231.406 27.3047C231.995 27.6536 232.451 28.1589 232.773 28.8203C233.102 29.4766 233.266 30.2708 233.266 31.2031ZM226.75 31.2031C226.75 31.8906 226.841 32.487 227.023 32.9922C227.206 33.4974 227.487 33.888 227.867 34.1641C228.247 34.4401 228.737 34.5781 229.336 34.5781C229.93 34.5781 230.417 34.4401 230.797 34.1641C231.182 33.888 231.466 33.4974 231.648 32.9922C231.831 32.487 231.922 31.8906 231.922 31.2031C231.922 30.5208 231.831 29.9323 231.648 29.4375C231.466 28.9375 231.185 28.5521 230.805 28.2812C230.424 28.0104 229.932 27.875 229.328 27.875C228.438 27.875 227.784 28.1693 227.367 28.7578C226.956 29.3464 226.75 30.1615 226.75 31.2031ZM237.898 39.3438C236.773 39.3438 235.906 39.1328 235.297 38.7109C234.688 38.2943 234.383 37.7083 234.383 36.9531C234.383 36.4167 234.552 35.9583 234.891 35.5781C235.234 35.1979 235.708 34.9453 236.312 34.8203C236.089 34.7161 235.896 34.5599 235.734 34.3516C235.578 34.1432 235.5 33.9036 235.5 33.6328C235.5 33.3203 235.586 33.0469 235.758 32.8125C235.935 32.5729 236.203 32.3438 236.562 32.125C236.115 31.9427 235.75 31.6354 235.469 31.2031C235.193 30.7656 235.055 30.2578 235.055 29.6797C235.055 29.0651 235.182 28.5417 235.438 28.1094C235.693 27.6719 236.062 27.3385 236.547 27.1094C237.031 26.8802 237.617 26.7656 238.305 26.7656C238.456 26.7656 238.607 26.7734 238.758 26.7891C238.914 26.7995 239.062 26.8177 239.203 26.8438C239.344 26.8646 239.466 26.8906 239.57 26.9219H242.508V27.7578L240.93 27.9531C241.086 28.1562 241.216 28.401 241.32 28.6875C241.424 28.974 241.477 29.2917 241.477 29.6406C241.477 30.4948 241.188 31.1745 240.609 31.6797C240.031 32.1797 239.237 32.4297 238.227 32.4297C237.987 32.4297 237.742 32.4089 237.492 32.3672C237.237 32.5078 237.042 32.6641 236.906 32.8359C236.776 33.0078 236.711 33.2057 236.711 33.4297C236.711 33.5964 236.76 33.7292 236.859 33.8281C236.964 33.9271 237.112 34 237.305 34.0469C237.497 34.0885 237.729 34.1094 238 34.1094H239.508C240.44 34.1094 241.154 34.3047 241.648 34.6953C242.148 35.0859 242.398 35.6562 242.398 36.4062C242.398 37.3542 242.013 38.0807 241.242 38.5859C240.471 39.0911 239.357 39.3438 237.898 39.3438ZM237.938 38.3281C238.646 38.3281 239.232 38.2552 239.695 38.1094C240.164 37.9688 240.513 37.763 240.742 37.4922C240.977 37.2266 241.094 36.9089 241.094 36.5391C241.094 36.1953 241.016 35.9349 240.859 35.7578C240.703 35.5859 240.474 35.4714 240.172 35.4141C239.87 35.3516 239.5 35.3203 239.062 35.3203H237.578C237.193 35.3203 236.857 35.3802 236.57 35.5C236.284 35.6198 236.062 35.7969 235.906 36.0312C235.755 36.2656 235.68 36.5573 235.68 36.9062C235.68 37.3698 235.875 37.7214 236.266 37.9609C236.656 38.2057 237.214 38.3281 237.938 38.3281ZM238.273 31.4844C238.893 31.4844 239.359 31.3281 239.672 31.0156C239.984 30.7031 240.141 30.2474 240.141 29.6484C240.141 29.0078 239.982 28.5286 239.664 28.2109C239.346 27.888 238.878 27.7266 238.258 27.7266C237.664 27.7266 237.206 27.8932 236.883 28.2266C236.565 28.5547 236.406 29.0365 236.406 29.6719C236.406 30.2552 236.568 30.7031 236.891 31.0156C237.214 31.3281 237.674 31.4844 238.273 31.4844ZM248.086 26.7812C248.258 26.7812 248.438 26.7917 248.625 26.8125C248.812 26.8281 248.979 26.8516 249.125 26.8828L248.961 28.0859C248.82 28.0495 248.664 28.0208 248.492 28C248.32 27.9792 248.159 27.9688 248.008 27.9688C247.664 27.9688 247.339 28.0391 247.031 28.1797C246.729 28.3151 246.464 28.513 246.234 28.7734C246.005 29.0286 245.826 29.3385 245.695 29.7031C245.565 30.0625 245.5 30.4635 245.5 30.9062V35.5H244.195V26.9375H245.273L245.414 28.5156H245.469C245.646 28.1979 245.859 27.9089 246.109 27.6484C246.359 27.3828 246.648 27.1719 246.977 27.0156C247.31 26.8594 247.68 26.7812 248.086 26.7812ZM254.039 26.7812C254.768 26.7812 255.393 26.9427 255.914 27.2656C256.435 27.5885 256.833 28.0417 257.109 28.625C257.385 29.2031 257.523 29.8802 257.523 30.6562V31.4609H251.609C251.625 32.4661 251.875 33.2318 252.359 33.7578C252.844 34.2839 253.526 34.5469 254.406 34.5469C254.948 34.5469 255.427 34.4974 255.844 34.3984C256.26 34.2995 256.693 34.1536 257.141 33.9609V35.1016C256.708 35.2943 256.279 35.4349 255.852 35.5234C255.43 35.612 254.93 35.6562 254.352 35.6562C253.529 35.6562 252.81 35.4896 252.195 35.1562C251.586 34.8177 251.112 34.3229 250.773 33.6719C250.435 33.0208 250.266 32.224 250.266 31.2812C250.266 30.3594 250.419 29.5625 250.727 28.8906C251.039 28.2135 251.477 27.6927 252.039 27.3281C252.607 26.9635 253.273 26.7812 254.039 26.7812ZM254.023 27.8438C253.331 27.8438 252.779 28.0703 252.367 28.5234C251.956 28.9766 251.711 29.6094 251.633 30.4219H256.164C256.159 29.9115 256.078 29.4635 255.922 29.0781C255.771 28.6875 255.539 28.3854 255.227 28.1719C254.914 27.9531 254.513 27.8438 254.023 27.8438ZM265.266 33.1562C265.266 33.7031 265.128 34.1641 264.852 34.5391C264.581 34.9089 264.19 35.1875 263.68 35.375C263.174 35.5625 262.57 35.6562 261.867 35.6562C261.268 35.6562 260.75 35.6094 260.312 35.5156C259.875 35.4219 259.492 35.2891 259.164 35.1172V33.9219C259.513 34.0938 259.93 34.25 260.414 34.3906C260.898 34.5312 261.393 34.6016 261.898 34.6016C262.638 34.6016 263.174 34.4818 263.508 34.2422C263.841 34.0026 264.008 33.6771 264.008 33.2656C264.008 33.0312 263.94 32.8255 263.805 32.6484C263.674 32.4661 263.453 32.2917 263.141 32.125C262.828 31.9531 262.396 31.7656 261.844 31.5625C261.297 31.3542 260.823 31.1484 260.422 30.9453C260.026 30.737 259.719 30.4844 259.5 30.1875C259.286 29.8906 259.18 29.5052 259.18 29.0312C259.18 28.3073 259.471 27.7526 260.055 27.3672C260.643 26.9766 261.414 26.7812 262.367 26.7812C262.883 26.7812 263.365 26.8333 263.812 26.9375C264.266 27.0365 264.688 27.1719 265.078 27.3438L264.641 28.3828C264.286 28.2318 263.909 28.1042 263.508 28C263.107 27.8958 262.698 27.8438 262.281 27.8438C261.682 27.8438 261.221 27.9427 260.898 28.1406C260.581 28.3385 260.422 28.6094 260.422 28.9531C260.422 29.2188 260.495 29.4375 260.641 29.6094C260.792 29.7812 261.031 29.9427 261.359 30.0938C261.688 30.2448 262.12 30.4219 262.656 30.625C263.193 30.8229 263.656 31.0286 264.047 31.2422C264.438 31.4505 264.737 31.7057 264.945 32.0078C265.159 32.3047 265.266 32.6875 265.266 33.1562ZM272.891 33.1562C272.891 33.7031 272.753 34.1641 272.477 34.5391C272.206 34.9089 271.815 35.1875 271.305 35.375C270.799 35.5625 270.195 35.6562 269.492 35.6562C268.893 35.6562 268.375 35.6094 267.938 35.5156C267.5 35.4219 267.117 35.2891 266.789 35.1172V33.9219C267.138 34.0938 267.555 34.25 268.039 34.3906C268.523 34.5312 269.018 34.6016 269.523 34.6016C270.263 34.6016 270.799 34.4818 271.133 34.2422C271.466 34.0026 271.633 33.6771 271.633 33.2656C271.633 33.0312 271.565 32.8255 271.43 32.6484C271.299 32.4661 271.078 32.2917 270.766 32.125C270.453 31.9531 270.021 31.7656 269.469 31.5625C268.922 31.3542 268.448 31.1484 268.047 30.9453C267.651 30.737 267.344 30.4844 267.125 30.1875C266.911 29.8906 266.805 29.5052 266.805 29.0312C266.805 28.3073 267.096 27.7526 267.68 27.3672C268.268 26.9766 269.039 26.7812 269.992 26.7812C270.508 26.7812 270.99 26.8333 271.438 26.9375C271.891 27.0365 272.312 27.1719 272.703 27.3438L272.266 28.3828C271.911 28.2318 271.534 28.1042 271.133 28C270.732 27.8958 270.323 27.8438 269.906 27.8438C269.307 27.8438 268.846 27.9427 268.523 28.1406C268.206 28.3385 268.047 28.6094 268.047 28.9531C268.047 29.2188 268.12 29.4375 268.266 29.6094C268.417 29.7812 268.656 29.9427 268.984 30.0938C269.312 30.2448 269.745 30.4219 270.281 30.625C270.818 30.8229 271.281 31.0286 271.672 31.2422C272.062 31.4505 272.362 31.7057 272.57 32.0078C272.784 32.3047 272.891 32.6875 272.891 33.1562Z" fill="#A8A8A8"/>
</g>
<defs>
<filter id="filter0_d_75918_14091" x="-2.5" y="0.5" width="401" height="57" filterUnits="userSpaceOnUse" color-interpolation-filters="sRGB">
<feFlood flood-opacity="0" result="BackgroundImageFix"/>
<feColorMatrix in="SourceAlpha" type="matrix" values="0 0 0 0 0 0 0 0 0 0 0 0 0 0 0 0 0 0 127 0" result="hardAlpha"/>
<feOffset/>
<feGaussianBlur stdDeviation="2"/>
<feColorMatrix type="matrix" values="0 0 0 0 0 0 0 0 0 0 0 0 0 0 0 0 0 0 0.16 0"/>
<feBlend mode="normal" in2="BackgroundImageFix" result="effect1_dropShadow_75918_14091"/>
<feBlend mode="normal" in="SourceGraphic" in2="effect1_dropShadow_75918_14091" result="shape"/>
</filter>
</defs>
</svg>
