<svg width="396" height="53" viewBox="0 0 396 53" fill="none" xmlns="http://www.w3.org/2000/svg">
<g filter="url(#filter0_d_75918_14116)">
<rect x="2" y="5" width="392" height="48" rx="10" fill="#E7E7E7"/>
<rect x="2" y="5" width="392" height="48" rx="10" stroke="#A8A8A8" stroke-dasharray="2 4"/>
<path d="M153.992 35.5H152.461L146.234 25.9062H146.172C146.188 26.1615 146.206 26.4531 146.227 26.7812C146.247 27.1042 146.263 27.4505 146.273 27.8203C146.289 28.1849 146.297 28.5573 146.297 28.9375V35.5H145.062V24.0781H146.586L152.789 33.6406H152.844C152.833 33.4583 152.82 33.2005 152.805 32.8672C152.789 32.5286 152.773 32.1667 152.758 31.7812C152.747 31.3906 152.742 31.0286 152.742 30.6953V24.0781H153.992V35.5ZM164.297 31.2031C164.297 31.9062 164.206 32.5339 164.023 33.0859C163.841 33.638 163.578 34.1042 163.234 34.4844C162.891 34.8646 162.474 35.1562 161.984 35.3594C161.5 35.5573 160.951 35.6562 160.336 35.6562C159.763 35.6562 159.237 35.5573 158.758 35.3594C158.284 35.1562 157.872 34.8646 157.523 34.4844C157.18 34.1042 156.911 33.638 156.719 33.0859C156.531 32.5339 156.438 31.9062 156.438 31.2031C156.438 30.2656 156.596 29.4688 156.914 28.8125C157.232 28.151 157.685 27.6484 158.273 27.3047C158.867 26.9557 159.573 26.7812 160.391 26.7812C161.172 26.7812 161.854 26.9557 162.438 27.3047C163.026 27.6536 163.482 28.1589 163.805 28.8203C164.133 29.4766 164.297 30.2708 164.297 31.2031ZM157.781 31.2031C157.781 31.8906 157.872 32.487 158.055 32.9922C158.237 33.4974 158.518 33.888 158.898 34.1641C159.279 34.4401 159.768 34.5781 160.367 34.5781C160.961 34.5781 161.448 34.4401 161.828 34.1641C162.214 33.888 162.497 33.4974 162.68 32.9922C162.862 32.487 162.953 31.8906 162.953 31.2031C162.953 30.5208 162.862 29.9323 162.68 29.4375C162.497 28.9375 162.216 28.5521 161.836 28.2812C161.456 28.0104 160.964 27.875 160.359 27.875C159.469 27.875 158.815 28.1693 158.398 28.7578C157.987 29.3464 157.781 30.1615 157.781 31.2031ZM173.461 34.5938C173.674 34.5938 173.893 34.5755 174.117 34.5391C174.341 34.5026 174.523 34.4583 174.664 34.4062V35.4141C174.513 35.4818 174.302 35.5391 174.031 35.5859C173.766 35.6328 173.505 35.6562 173.25 35.6562C172.797 35.6562 172.385 35.5781 172.016 35.4219C171.646 35.2604 171.349 34.9896 171.125 34.6094C170.906 34.2292 170.797 33.7031 170.797 33.0312V27.9531H169.578V27.3203L170.805 26.8125L171.32 24.9531H172.102V26.9375H174.609V27.9531H172.102V32.9922C172.102 33.5286 172.224 33.9297 172.469 34.1953C172.719 34.4609 173.049 34.5938 173.461 34.5938ZM179.602 26.7969C180.622 26.7969 181.38 27.026 181.875 27.4844C182.37 27.9427 182.617 28.6745 182.617 29.6797V35.5H181.672L181.422 34.2344H181.359C181.12 34.5469 180.87 34.8099 180.609 35.0234C180.349 35.2318 180.047 35.3906 179.703 35.5C179.365 35.6042 178.948 35.6562 178.453 35.6562C177.932 35.6562 177.469 35.5651 177.062 35.3828C176.661 35.2005 176.344 34.9245 176.109 34.5547C175.88 34.1849 175.766 33.7161 175.766 33.1484C175.766 32.2943 176.104 31.638 176.781 31.1797C177.458 30.7214 178.49 30.4714 179.875 30.4297L181.352 30.3672V29.8438C181.352 29.1042 181.193 28.5859 180.875 28.2891C180.557 27.9922 180.109 27.8438 179.531 27.8438C179.083 27.8438 178.656 27.9089 178.25 28.0391C177.844 28.1693 177.458 28.3229 177.094 28.5L176.695 27.5156C177.081 27.3177 177.523 27.1484 178.023 27.0078C178.523 26.8672 179.049 26.7969 179.602 26.7969ZM181.336 31.2812L180.031 31.3359C178.964 31.3776 178.211 31.5521 177.773 31.8594C177.336 32.1667 177.117 32.6016 177.117 33.1641C177.117 33.6536 177.266 34.0156 177.562 34.25C177.859 34.4844 178.253 34.6016 178.742 34.6016C179.503 34.6016 180.125 34.3906 180.609 33.9688C181.094 33.5469 181.336 32.9141 181.336 32.0703V31.2812ZM190.828 33.1562C190.828 33.7031 190.69 34.1641 190.414 34.5391C190.143 34.9089 189.753 35.1875 189.242 35.375C188.737 35.5625 188.133 35.6562 187.43 35.6562C186.831 35.6562 186.312 35.6094 185.875 35.5156C185.438 35.4219 185.055 35.2891 184.727 35.1172V33.9219C185.076 34.0938 185.492 34.25 185.977 34.3906C186.461 34.5312 186.956 34.6016 187.461 34.6016C188.201 34.6016 188.737 34.4818 189.07 34.2422C189.404 34.0026 189.57 33.6771 189.57 33.2656C189.57 33.0312 189.503 32.8255 189.367 32.6484C189.237 32.4661 189.016 32.2917 188.703 32.125C188.391 31.9531 187.958 31.7656 187.406 31.5625C186.859 31.3542 186.385 31.1484 185.984 30.9453C185.589 30.737 185.281 30.4844 185.062 30.1875C184.849 29.8906 184.742 29.5052 184.742 29.0312C184.742 28.3073 185.034 27.7526 185.617 27.3672C186.206 26.9766 186.977 26.7812 187.93 26.7812C188.445 26.7812 188.927 26.8333 189.375 26.9375C189.828 27.0365 190.25 27.1719 190.641 27.3438L190.203 28.3828C189.849 28.2318 189.471 28.1042 189.07 28C188.669 27.8958 188.26 27.8438 187.844 27.8438C187.245 27.8438 186.784 27.9427 186.461 28.1406C186.143 28.3385 185.984 28.6094 185.984 28.9531C185.984 29.2188 186.057 29.4375 186.203 29.6094C186.354 29.7812 186.594 29.9427 186.922 30.0938C187.25 30.2448 187.682 30.4219 188.219 30.625C188.755 30.8229 189.219 31.0286 189.609 31.2422C190 31.4505 190.299 31.7057 190.508 32.0078C190.721 32.3047 190.828 32.6875 190.828 33.1562ZM194.203 23.3438V29.6562C194.203 29.8646 194.195 30.1198 194.18 30.4219C194.164 30.7188 194.151 30.9818 194.141 31.2109H194.195C194.305 31.0755 194.464 30.875 194.672 30.6094C194.885 30.3438 195.065 30.1302 195.211 29.9688L198.055 26.9375H199.578L196.133 30.5938L199.828 35.5H198.266L195.242 31.4453L194.203 32.3984V35.5H192.914V23.3438H194.203ZM206.859 33.1562C206.859 33.7031 206.721 34.1641 206.445 34.5391C206.174 34.9089 205.784 35.1875 205.273 35.375C204.768 35.5625 204.164 35.6562 203.461 35.6562C202.862 35.6562 202.344 35.6094 201.906 35.5156C201.469 35.4219 201.086 35.2891 200.758 35.1172V33.9219C201.107 34.0938 201.523 34.25 202.008 34.3906C202.492 34.5312 202.987 34.6016 203.492 34.6016C204.232 34.6016 204.768 34.4818 205.102 34.2422C205.435 34.0026 205.602 33.6771 205.602 33.2656C205.602 33.0312 205.534 32.8255 205.398 32.6484C205.268 32.4661 205.047 32.2917 204.734 32.125C204.422 31.9531 203.99 31.7656 203.438 31.5625C202.891 31.3542 202.417 31.1484 202.016 30.9453C201.62 30.737 201.312 30.4844 201.094 30.1875C200.88 29.8906 200.773 29.5052 200.773 29.0312C200.773 28.3073 201.065 27.7526 201.648 27.3672C202.237 26.9766 203.008 26.7812 203.961 26.7812C204.477 26.7812 204.958 26.8333 205.406 26.9375C205.859 27.0365 206.281 27.1719 206.672 27.3438L206.234 28.3828C205.88 28.2318 205.503 28.1042 205.102 28C204.701 27.8958 204.292 27.8438 203.875 27.8438C203.276 27.8438 202.815 27.9427 202.492 28.1406C202.174 28.3385 202.016 28.6094 202.016 28.9531C202.016 29.2188 202.089 29.4375 202.234 29.6094C202.385 29.7812 202.625 29.9427 202.953 30.0938C203.281 30.2448 203.714 30.4219 204.25 30.625C204.786 30.8229 205.25 31.0286 205.641 31.2422C206.031 31.4505 206.331 31.7057 206.539 32.0078C206.753 32.3047 206.859 32.6875 206.859 33.1562ZM222.367 29.6797C222.367 30.9661 222.133 32.0417 221.664 32.9062C221.195 33.7656 220.516 34.4141 219.625 34.8516C218.74 35.2839 217.664 35.5 216.398 35.5H213.297V24.0781H216.742C217.904 24.0781 218.904 24.2917 219.742 24.7188C220.581 25.1406 221.227 25.7682 221.68 26.6016C222.138 27.4297 222.367 28.4557 222.367 29.6797ZM220.969 29.7266C220.969 28.7005 220.797 27.8542 220.453 27.1875C220.115 26.5208 219.615 26.026 218.953 25.7031C218.297 25.375 217.492 25.2109 216.539 25.2109H214.625V34.3594H216.242C217.815 34.3594 218.995 33.9714 219.781 33.1953C220.573 32.4193 220.969 31.263 220.969 29.7266ZM232.094 31.2031C232.094 31.9062 232.003 32.5339 231.82 33.0859C231.638 33.638 231.375 34.1042 231.031 34.4844C230.688 34.8646 230.271 35.1562 229.781 35.3594C229.297 35.5573 228.747 35.6562 228.133 35.6562C227.56 35.6562 227.034 35.5573 226.555 35.3594C226.081 35.1562 225.669 34.8646 225.32 34.4844C224.977 34.1042 224.708 33.638 224.516 33.0859C224.328 32.5339 224.234 31.9062 224.234 31.2031C224.234 30.2656 224.393 29.4688 224.711 28.8125C225.029 28.151 225.482 27.6484 226.07 27.3047C226.664 26.9557 227.37 26.7812 228.188 26.7812C228.969 26.7812 229.651 26.9557 230.234 27.3047C230.823 27.6536 231.279 28.1589 231.602 28.8203C231.93 29.4766 232.094 30.2708 232.094 31.2031ZM225.578 31.2031C225.578 31.8906 225.669 32.487 225.852 32.9922C226.034 33.4974 226.315 33.888 226.695 34.1641C227.076 34.4401 227.565 34.5781 228.164 34.5781C228.758 34.5781 229.245 34.4401 229.625 34.1641C230.01 33.888 230.294 33.4974 230.477 32.9922C230.659 32.487 230.75 31.8906 230.75 31.2031C230.75 30.5208 230.659 29.9323 230.477 29.4375C230.294 28.9375 230.013 28.5521 229.633 28.2812C229.253 28.0104 228.76 27.875 228.156 27.875C227.266 27.875 226.612 28.1693 226.195 28.7578C225.784 29.3464 225.578 30.1615 225.578 31.2031ZM238.391 26.7812C239.406 26.7812 240.174 27.0312 240.695 27.5312C241.216 28.026 241.477 28.8229 241.477 29.9219V35.5H240.195V30.0078C240.195 29.2943 240.031 28.7604 239.703 28.4062C239.38 28.0521 238.883 27.875 238.211 27.875C237.263 27.875 236.596 28.1432 236.211 28.6797C235.826 29.2161 235.633 29.9948 235.633 31.0156V35.5H234.336V26.9375H235.383L235.578 28.1719H235.648C235.831 27.8698 236.062 27.6172 236.344 27.4141C236.625 27.2057 236.94 27.0495 237.289 26.9453C237.638 26.8359 238.005 26.7812 238.391 26.7812ZM247.445 26.7812C248.174 26.7812 248.799 26.9427 249.32 27.2656C249.841 27.5885 250.24 28.0417 250.516 28.625C250.792 29.2031 250.93 29.8802 250.93 30.6562V31.4609H245.016C245.031 32.4661 245.281 33.2318 245.766 33.7578C246.25 34.2839 246.932 34.5469 247.812 34.5469C248.354 34.5469 248.833 34.4974 249.25 34.3984C249.667 34.2995 250.099 34.1536 250.547 33.9609V35.1016C250.115 35.2943 249.685 35.4349 249.258 35.5234C248.836 35.612 248.336 35.6562 247.758 35.6562C246.935 35.6562 246.216 35.4896 245.602 35.1562C244.992 34.8177 244.518 34.3229 244.18 33.6719C243.841 33.0208 243.672 32.224 243.672 31.2812C243.672 30.3594 243.826 29.5625 244.133 28.8906C244.445 28.2135 244.883 27.6927 245.445 27.3281C246.013 26.9635 246.68 26.7812 247.445 26.7812ZM247.43 27.8438C246.737 27.8438 246.185 28.0703 245.773 28.5234C245.362 28.9766 245.117 29.6094 245.039 30.4219H249.57C249.565 29.9115 249.484 29.4635 249.328 29.0781C249.177 28.6875 248.945 28.3854 248.633 28.1719C248.32 27.9531 247.919 27.8438 247.43 27.8438Z" fill="#A8A8A8"/>
</g>
<defs>
<filter id="filter0_d_75918_14116" x="-2.5" y="0.5" width="401" height="57" filterUnits="userSpaceOnUse" color-interpolation-filters="sRGB">
<feFlood flood-opacity="0" result="BackgroundImageFix"/>
<feColorMatrix in="SourceAlpha" type="matrix" values="0 0 0 0 0 0 0 0 0 0 0 0 0 0 0 0 0 0 127 0" result="hardAlpha"/>
<feOffset/>
<feGaussianBlur stdDeviation="2"/>
<feColorMatrix type="matrix" values="0 0 0 0 0 0 0 0 0 0 0 0 0 0 0 0 0 0 0.16 0"/>
<feBlend mode="normal" in2="BackgroundImageFix" result="effect1_dropShadow_75918_14116"/>
<feBlend mode="normal" in="SourceGraphic" in2="effect1_dropShadow_75918_14116" result="shape"/>
</filter>
</defs>
</svg>
